<svg width="200" height="200" viewBox="0 0 200 200" fill="none" xmlns="http://www.w3.org/2000/svg">
<path d="M38.5 151C47 144.5 56.5 139.375 67 135.625C77.5 131.875 88.5 130 100 130C111.5 130 122.5 131.875 133 135.625C143.5 139.375 153 144.5 161.5 151C167.333 144.167 171.875 136.417 175.125 127.75C178.375 119.083 180 109.833 180 100C180 77.8333 172.208 58.9583 156.625 43.375C141.042 27.7917 122.167 20 100 20C77.8333 20 58.9583 27.7917 43.375 43.375C27.7917 58.9583 20 77.8333 20 100C20 109.833 21.625 119.083 24.875 127.75C28.125 136.417 32.6667 144.167 38.5 151ZM100 110C90.1667 110 81.875 106.625 75.125 99.875C68.375 93.125 65 84.8333 65 75C65 65.1667 68.375 56.875 75.125 50.125C81.875 43.375 90.1667 40 100 40C109.833 40 118.125 43.375 124.875 50.125C131.625 56.875 135 65.1667 135 75C135 84.8333 131.625 93.125 124.875 99.875C118.125 106.625 109.833 110 100 110ZM100 200C86.1667 200 73.1667 197.375 61 192.125C48.8333 186.875 38.25 179.75 29.25 170.75C20.25 161.75 13.125 151.167 7.875 139C2.625 126.833 0 113.833 0 100C0 86.1667 2.625 73.1667 7.875 61C13.125 48.8333 20.25 38.25 29.25 29.25C38.25 20.25 48.8333 13.125 61 7.875C73.1667 2.625 86.1667 0 100 0C113.833 0 126.833 2.625 139 7.875C151.167 13.125 161.75 20.25 170.75 29.25C179.75 38.25 186.875 48.8333 192.125 61C197.375 73.1667 200 86.1667 200 100C200 113.833 197.375 126.833 192.125 139C186.875 151.167 179.75 161.75 170.75 170.75C161.75 179.75 151.167 186.875 139 192.125C126.833 197.375 113.833 200 100 200ZM100 180C108.833 180 117.167 178.708 125 176.125C132.833 173.542 140 169.833 146.5 165C140 160.167 132.833 156.458 125 153.875C117.167 151.292 108.833 150 100 150C91.1667 150 82.8333 151.292 75 153.875C67.1667 156.458 60 160.167 53.5 165C60 169.833 67.1667 173.542 75 176.125C82.8333 178.708 91.1667 180 100 180ZM100 90C104.333 90 107.917 88.5833 110.75 85.75C113.583 82.9167 115 79.3333 115 75C115 70.6667 113.583 67.0833 110.75 64.25C107.917 61.4167 104.333 60 100 60C95.6667 60 92.0833 61.4167 89.25 64.25C86.4167 67.0833 85 70.6667 85 75C85 79.3333 86.4167 82.9167 89.25 85.75C92.0833 88.5833 95.6667 90 100 90Z" fill="#5F6368"/>
</svg>
