<svg width="324" height="324" viewBox="0 0 324 324" fill="none" xmlns="http://www.w3.org/2000/svg">
<mask id="mask0_139_91" style="mask-type:luminance" maskUnits="userSpaceOnUse" x="0" y="0" width="324" height="324">
<path d="M0 0H324V324H0V0Z" fill="white"/>
</mask>
<g mask="url(#mask0_139_91)">
<mask id="mask1_139_91" style="mask-type:luminance" maskUnits="userSpaceOnUse" x="0" y="0" width="324" height="324">
<path d="M51 0H273C286.526 0 299.5 5.36979 309.063 14.9375C318.625 24.5 324 37.474 324 51V273C324 286.526 318.625 299.495 309.063 309.063C299.5 318.625 286.526 324 273 324H51C37.474 324 24.5 318.625 14.9375 309.063C5.375 299.495 0 286.526 0 273V51C0 37.474 5.375 24.5 14.9375 14.9375C24.5 5.36979 37.474 0 51 0Z" fill="white"/>
</mask>
<g mask="url(#mask1_139_91)">
<path d="M0 0H324V324H0V0Z" fill="#3B729C"/>
</g>
</g>
<mask id="mask2_139_91" style="mask-type:luminance" maskUnits="userSpaceOnUse" x="15" y="15" width="293" height="293">
<path d="M15.7551 15.75H307.755V307.75H15.7551V15.75Z" fill="white"/>
</mask>
<g mask="url(#mask2_139_91)">
<path d="M272.677 308.198H51.2343C31.6405 308.198 15.7551 292.307 15.7551 272.719V51.2708C15.7551 31.6823 31.6405 15.7916 51.2343 15.7916H272.755C292.349 15.7916 308.24 31.6823 308.24 51.2708V272.792C308.161 292.307 292.271 308.198 272.677 308.198ZM51.2343 19.8802C33.8801 19.8802 19.8385 33.9166 19.8385 51.2708V272.792C19.8385 290.151 33.9583 304.187 51.2343 304.187H272.755C290.109 304.187 304.151 290.073 304.151 272.792V51.2708C304.151 33.9166 290.036 19.8802 272.755 19.8802H51.2343Z" fill="#FDFDFD"/>
</g>
<path d="M135.849 143.319C128.567 141.528 123.338 139.132 120.161 136.132C116.995 133.121 115.411 129.673 115.411 125.798C115.411 121.189 116.276 116.444 118.015 111.569C119.75 106.694 122.057 102.246 124.932 98.2151C127.807 94.1734 131.062 90.8557 134.703 88.2568C138.338 85.6474 142.062 84.3401 145.87 84.3401C147.396 84.3401 149.265 84.7255 151.474 85.4859C153.682 86.2515 155.797 87.189 157.828 88.2984C159.87 89.3974 161.604 90.5484 163.036 91.7568C164.479 92.9547 165.203 93.9547 165.203 94.7568C165.203 95.288 164.859 95.6213 164.182 95.7568C163.515 95.8818 162.015 96.0484 159.682 96.2568C152.14 96.5224 145.661 97.7568 140.245 99.9651C134.838 102.163 130.307 105.361 126.64 109.569C124.291 112.377 123.12 114.944 123.12 117.278C123.12 118.351 123.604 119.418 124.578 120.486C125.547 121.559 126.797 122.58 128.328 123.548C129.87 124.522 131.567 125.413 133.432 126.215C135.307 127.007 137.172 127.689 139.036 128.257C140.911 128.83 142.666 129.278 144.307 129.611C145.942 129.944 147.265 130.111 148.265 130.111C149.734 130.111 151.104 129.996 152.37 129.757C153.646 129.522 155.099 129.038 156.724 128.298C158.359 127.564 160.359 126.548 162.724 125.257C165.099 123.955 168.088 122.267 171.703 120.194C174.838 118.392 177.479 116.892 179.62 115.694C181.755 114.486 183.495 113.538 184.828 112.84C186.161 112.132 187.172 111.632 187.87 111.34C188.578 111.038 189.026 110.882 189.224 110.882C190.099 110.882 190.536 111.351 190.536 112.278C190.536 112.752 190.401 113.121 190.14 113.382L180.224 127.903C176.208 130.043 172.047 132.444 167.745 135.111C163.437 137.778 159.182 140.653 154.974 143.736C150.765 146.809 146.734 150.017 142.89 153.361C139.057 156.694 135.64 160.101 132.64 163.569C130.234 166.309 128.099 169.231 126.224 172.34C124.359 175.439 122.765 178.585 121.432 181.778C120.099 184.986 119.078 188.173 118.37 191.34C117.672 194.517 117.328 197.611 117.328 200.611C117.328 208.288 119.172 215.304 122.87 221.653C126.578 227.996 131.75 233.434 138.39 237.965C145.041 242.507 152.995 246.028 162.245 248.528C171.495 251.038 181.625 252.298 192.64 252.298C194.234 252.298 195.984 252.278 197.89 252.236C199.791 252.205 202.109 252.142 204.849 252.048C207.599 251.949 210.89 251.83 214.724 251.694C218.557 251.569 223.213 251.366 228.703 251.09C231.172 250.965 233.291 250.845 235.057 250.736C236.817 250.637 238.234 250.59 239.307 250.59C240.442 250.59 241.015 250.923 241.015 251.59C241.015 251.991 240.599 252.538 239.765 253.236C238.932 253.944 237.776 254.726 236.307 255.59C234.833 256.465 233.146 257.351 231.245 258.257C229.338 259.158 227.291 260.048 225.099 260.923C210.666 266.798 196.338 269.736 182.12 269.736C175.979 269.736 169.854 269.199 163.745 268.132C157.63 267.059 151.807 265.47 146.265 263.361C140.724 261.262 135.562 258.611 130.786 255.403C126.005 252.194 121.87 248.449 118.37 244.173C114.87 239.908 112.13 235.09 110.161 229.715C108.187 224.34 107.203 218.413 107.203 211.944C107.203 206.528 108 200.642 109.599 194.298C111.208 187.965 113.349 181.679 116.015 175.444C118.682 169.194 121.734 163.267 125.182 157.653C128.625 152.043 132.182 147.267 135.849 143.319Z" fill="#F8F8F8"/>
</svg>
