<svg width="25" height="24" viewBox="0 0 25 24" fill="none" xmlns="http://www.w3.org/2000/svg">
<path d="M12.75 22C12.2 22 11.7292 21.8042 11.3375 21.4125C10.9458 21.0208 10.75 20.55 10.75 20H14.75C14.75 20.55 14.5542 21.0208 14.1625 21.4125C13.7708 21.8042 13.3 22 12.75 22ZM18.75 13V10H15.75V8H18.75V5H20.75V8H23.75V10H20.75V13H18.75ZM4.75 19V17H6.75V10C6.75 8.61667 7.16667 7.3875 8 6.3125C8.83333 5.2375 9.91667 4.53333 11.25 4.2V3.5C11.25 3.08333 11.3958 2.72917 11.6875 2.4375C11.9792 2.14583 12.3333 2 12.75 2C13.1667 2 13.5208 2.14583 13.8125 2.4375C14.1042 2.72917 14.25 3.08333 14.25 3.5V4.2C14.4833 4.26667 14.7125 4.3375 14.9375 4.4125C15.1625 4.4875 15.375 4.58333 15.575 4.7C15.325 4.93333 15.1 5.1875 14.9 5.4625C14.7 5.7375 14.525 6.03333 14.375 6.35C14.125 6.23333 13.8625 6.14583 13.5875 6.0875C13.3125 6.02917 13.0333 6 12.75 6C11.65 6 10.7083 6.39167 9.925 7.175C9.14167 7.95833 8.75 8.9 8.75 10V17H16.75V14.2C17.05 14.3833 17.3667 14.5333 17.7 14.65C18.0333 14.7667 18.3833 14.8583 18.75 14.925V17H20.75V19H4.75Z" fill="white"/>
</svg>
