<svg width="9" height="9" viewBox="0 0 9 9" fill="none" xmlns="http://www.w3.org/2000/svg">
<path fill-rule="evenodd" clip-rule="evenodd" d="M6.69297 1.10885V1.61211H7.53533H7.53602V1.61341C7.80206 1.61406 8.04323 1.71562 8.21737 1.88034C8.39013 2.04375 8.49793 2.26966 8.49862 2.51966H8.5V2.52096V7.29114V7.29179H8.49862C8.49793 7.54179 8.39013 7.76901 8.2153 7.93372C8.04185 8.09648 7.80206 8.19804 7.53671 8.1987V8.2H7.53533H3.2717H3.27101V8.1987C3.00566 8.19804 2.7638 8.09648 2.58966 7.93177C2.4169 7.76836 2.3091 7.54245 2.30841 7.29245H2.30703V7.29114V6.22278H1.46467H1.46398V6.22148C1.19863 6.22083 0.956768 6.11927 0.782629 5.95455C0.609873 5.79114 0.502073 5.56523 0.501382 5.31523H0.5V5.31393V1.10885V1.1082H0.501382C0.502073 0.857549 0.610564 0.630336 0.784702 0.466273C0.95815 0.303513 1.19794 0.20195 1.46329 0.201299V0.199997H1.46467H5.7283H5.72899V0.201299C5.99503 0.20195 6.2362 0.303513 6.41034 0.468226C6.5831 0.631638 6.6909 0.857549 6.69159 1.10755H6.69297V1.10885ZM5.96186 1.61211V1.10885V1.10755H5.96325C5.96325 1.0483 5.9363 0.993617 5.89345 0.953252C5.8513 0.913539 5.79256 0.888148 5.72968 0.888148V0.88945H5.72899H1.46536H1.46398V0.888148C1.4011 0.888148 1.34305 0.913539 1.30021 0.953903C1.25805 0.993617 1.2311 1.04896 1.2311 1.1082H1.23249V1.10885V5.31393V5.31523H1.2311C1.2311 5.37448 1.25805 5.42916 1.3009 5.46953C1.34305 5.50924 1.40179 5.53463 1.46467 5.53463V5.53333H1.46536H2.30772V2.52096V2.52031H2.3091C2.3098 2.26966 2.41829 2.04245 2.59242 1.87838C2.76587 1.71562 3.00566 1.61406 3.27101 1.61341V1.61211H3.27239H5.96186ZM7.7682 7.29114V2.52096V2.51966H7.76959C7.76959 2.46041 7.74264 2.40573 7.69979 2.36536C7.65764 2.32565 7.5989 2.30026 7.53602 2.30026V2.30156H7.53533H3.2717H3.27032V2.30026C3.20744 2.30026 3.14939 2.32565 3.10655 2.36601C3.0644 2.40573 3.03745 2.46106 3.03745 2.52031H3.03883V2.52096V7.29114V7.29245H3.03745C3.03745 7.35169 3.06439 7.40638 3.10724 7.44674C3.14939 7.48646 3.20813 7.51185 3.27101 7.51185V7.51054H3.2717H7.53533H7.53671V7.51185C7.59959 7.51185 7.65764 7.48646 7.70048 7.44609C7.74264 7.40638 7.76959 7.35104 7.76959 7.29179H7.7682V7.29114Z" fill="#4F4F4F"/>
</svg>
