<svg width="87" height="87" viewBox="0 0 87 87" fill="none" xmlns="http://www.w3.org/2000/svg">
<rect x="0.5" y="0.5" width="86" height="86" rx="7.5" fill="white" stroke="#3B729C"/>
<path d="M11.2377 65.51V67.49H13.9287V68.147H11.2377V70.361H14.3877V71.027H10.4547V64.853H14.3427V65.51H11.2377ZM15.4839 68.849V68.291H17.9589V68.849H15.4839ZM22.5275 70.82C22.2995 70.91 22.0895 70.973 21.8975 71.009C21.7055 71.045 21.5015 71.063 21.2855 71.063C20.8295 71.063 20.4365 70.967 20.1065 70.775C19.7765 70.583 19.5245 70.307 19.3505 69.947C19.1765 69.581 19.0895 69.146 19.0895 68.642C19.0895 68.138 19.1765 67.706 19.3505 67.346C19.5245 66.986 19.7765 66.71 20.1065 66.518C20.4365 66.326 20.8295 66.23 21.2855 66.23C21.4835 66.23 21.6875 66.251 21.8975 66.293C22.1075 66.329 22.3055 66.377 22.4915 66.437L22.3025 66.986L22.2845 66.977C22.0865 66.923 21.9185 66.884 21.7805 66.86C21.6425 66.836 21.5015 66.824 21.3575 66.824C20.8775 66.824 20.5025 66.983 20.2325 67.301C19.9685 67.619 19.8365 68.066 19.8365 68.642C19.8365 69.224 19.9685 69.674 20.2325 69.992C20.5025 70.304 20.8775 70.46 21.3575 70.46C21.6455 70.46 21.9845 70.391 22.3745 70.253L22.5275 70.82ZM25.3251 71.063C24.8871 71.063 24.5151 70.964 24.2091 70.766C23.9091 70.562 23.6811 70.283 23.5251 69.929C23.3751 69.569 23.3001 69.158 23.3001 68.696C23.3001 68.228 23.3751 67.817 23.5251 67.463C23.6811 67.103 23.9091 66.824 24.2091 66.626C24.5151 66.428 24.8871 66.329 25.3251 66.329C25.7571 66.329 26.1261 66.428 26.4321 66.626C26.7381 66.824 26.9661 67.103 27.1161 67.463C27.2721 67.817 27.3501 68.228 27.3501 68.696C27.3501 69.158 27.2721 69.569 27.1161 69.929C26.9661 70.283 26.7381 70.562 26.4321 70.766C26.1261 70.964 25.7571 71.063 25.3251 71.063ZM25.3251 66.869C24.8751 66.869 24.5361 67.04 24.3081 67.382C24.0861 67.724 23.9751 68.162 23.9751 68.696C23.9751 69.224 24.0861 69.662 24.3081 70.01C24.5361 70.352 24.8751 70.523 25.3251 70.523C25.7691 70.523 26.1021 70.352 26.3241 70.01C26.5461 69.668 26.6571 69.23 26.6571 68.696C26.6571 68.162 26.5461 67.724 26.3241 67.382C26.1021 67.04 25.7691 66.869 25.3251 66.869ZM29.0403 67.121C29.2923 66.881 29.5413 66.698 29.7873 66.572C30.0393 66.446 30.3183 66.383 30.6243 66.383C31.2783 66.383 31.6983 66.644 31.8843 67.166C32.1783 66.89 32.4543 66.692 32.7123 66.572C32.9763 66.446 33.2613 66.383 33.5673 66.383C34.0233 66.383 34.3653 66.509 34.5933 66.761C34.8213 67.007 34.9353 67.37 34.9353 67.85V71H34.2153V68.075C34.2153 67.415 33.9063 67.085 33.2883 67.085C32.8683 67.085 32.4303 67.286 31.9743 67.688C31.9923 67.784 32.0013 67.913 32.0013 68.075V71H31.2723V68.075C31.2723 67.415 30.9633 67.085 30.3453 67.085C30.0993 67.085 29.8743 67.142 29.6703 67.256C29.4663 67.364 29.2623 67.502 29.0583 67.67V71H28.3383V66.473H29.0583V67.121H29.0403ZM36.722 67.121C36.974 66.881 37.223 66.698 37.469 66.572C37.721 66.446 38 66.383 38.306 66.383C38.96 66.383 39.38 66.644 39.566 67.166C39.86 66.89 40.136 66.692 40.394 66.572C40.658 66.446 40.943 66.383 41.249 66.383C41.705 66.383 42.047 66.509 42.275 66.761C42.503 67.007 42.617 67.37 42.617 67.85V71H41.897V68.075C41.897 67.415 41.588 67.085 40.97 67.085C40.55 67.085 40.112 67.286 39.656 67.688C39.674 67.784 39.683 67.913 39.683 68.075V71H38.954V68.075C38.954 67.415 38.645 67.085 38.027 67.085C37.781 67.085 37.556 67.142 37.352 67.256C37.148 67.364 36.944 67.502 36.74 67.67V71H36.02V66.473H36.74V67.121H36.722ZM47.4186 66.473V71.027H46.6986V70.469H46.7166C46.4466 70.691 46.1796 70.856 45.9156 70.964C45.6516 71.066 45.3696 71.117 45.0696 71.117C44.6196 71.117 44.2776 70.994 44.0436 70.748C43.8156 70.496 43.7016 70.13 43.7016 69.65V66.473H44.4216V69.425C44.4216 70.085 44.7336 70.415 45.3576 70.415C45.6036 70.415 45.8436 70.358 46.0776 70.244C46.3116 70.124 46.5186 69.989 46.6986 69.839V66.473H47.4186ZM48.5004 71V66.473H49.2204V66.995C49.5144 66.779 49.7874 66.623 50.0394 66.527C50.2914 66.431 50.5614 66.383 50.8494 66.383C51.3054 66.383 51.6474 66.509 51.8754 66.761C52.1034 67.007 52.2174 67.37 52.2174 67.85V71H51.4974V68.075C51.4974 67.415 51.1884 67.085 50.5704 67.085C50.3184 67.085 50.0754 67.145 49.8414 67.265C49.6134 67.379 49.4064 67.514 49.2204 67.67V71H48.5004ZM54.0193 71H53.2993V66.536H54.0193V71ZM53.6503 65.951C53.5363 65.951 53.4373 65.912 53.3533 65.834C53.2753 65.75 53.2363 65.651 53.2363 65.537C53.2363 65.429 53.2753 65.336 53.3533 65.258C53.4373 65.174 53.5363 65.132 53.6503 65.132C53.7643 65.132 53.8603 65.174 53.9383 65.258C54.0223 65.336 54.0643 65.429 54.0643 65.537C54.0643 65.651 54.0223 65.75 53.9383 65.834C53.8603 65.912 53.7643 65.951 53.6503 65.951ZM58.2814 70.82C58.0534 70.91 57.8434 70.973 57.6514 71.009C57.4594 71.045 57.2554 71.063 57.0394 71.063C56.5834 71.063 56.1904 70.967 55.8604 70.775C55.5304 70.583 55.2784 70.307 55.1044 69.947C54.9304 69.581 54.8434 69.146 54.8434 68.642C54.8434 68.138 54.9304 67.706 55.1044 67.346C55.2784 66.986 55.5304 66.71 55.8604 66.518C56.1904 66.326 56.5834 66.23 57.0394 66.23C57.2374 66.23 57.4414 66.251 57.6514 66.293C57.8614 66.329 58.0594 66.377 58.2454 66.437L58.0564 66.986L58.0384 66.977C57.8404 66.923 57.6724 66.884 57.5344 66.86C57.3964 66.836 57.2554 66.824 57.1114 66.824C56.6314 66.824 56.2564 66.983 55.9864 67.301C55.7224 67.619 55.5904 68.066 55.5904 68.642C55.5904 69.224 55.7224 69.674 55.9864 69.992C56.2564 70.304 56.6314 70.46 57.1114 70.46C57.3994 70.46 57.7384 70.391 58.1284 70.253L58.2814 70.82ZM61.889 67.904C61.889 67.31 61.655 66.974 61.187 66.896C60.719 66.812 60.134 66.905 59.432 67.175L59.324 66.68C59.852 66.452 60.368 66.326 60.872 66.302C61.382 66.278 61.799 66.395 62.123 66.653C62.447 66.905 62.609 67.316 62.609 67.886V71H61.88V70.37C61.424 70.832 60.896 71.063 60.296 71.063C59.906 71.063 59.597 70.955 59.369 70.739C59.147 70.517 59.036 70.232 59.036 69.884C59.036 69.554 59.153 69.254 59.387 68.984C59.621 68.714 59.951 68.51 60.377 68.372C60.809 68.234 61.313 68.183 61.889 68.219V67.904ZM61.889 68.669C61.445 68.621 61.058 68.651 60.728 68.759C60.398 68.861 60.146 69.008 59.972 69.2C59.804 69.392 59.72 69.593 59.72 69.803C59.72 70.019 59.795 70.187 59.945 70.307C60.101 70.427 60.308 70.487 60.566 70.487C60.836 70.487 61.073 70.439 61.277 70.343C61.487 70.241 61.691 70.097 61.889 69.911V68.669ZM64.5969 69.974C64.5969 70.172 64.6449 70.319 64.7409 70.415C64.8369 70.511 64.9719 70.559 65.1459 70.559C65.2239 70.559 65.3109 70.553 65.4069 70.541C65.5029 70.529 65.5629 70.517 65.5869 70.505V71.054C65.4969 71.072 65.3769 71.087 65.2269 71.099C65.0829 71.111 64.9659 71.117 64.8759 71.117C64.5219 71.117 64.2669 71.027 64.1109 70.847C63.9549 70.667 63.8769 70.397 63.8769 70.037V67.094H63.2379L63.3639 66.536H63.8769V65.411L64.5969 65.213V66.536H65.6229L65.4969 67.094H64.5969V69.974ZM67.0271 71H66.3071V66.536H67.0271V71ZM66.6581 65.951C66.5441 65.951 66.4451 65.912 66.3611 65.834C66.2831 65.75 66.2441 65.651 66.2441 65.537C66.2441 65.429 66.2831 65.336 66.3611 65.258C66.4451 65.174 66.5441 65.132 66.6581 65.132C66.7721 65.132 66.8681 65.174 66.9461 65.258C67.0301 65.336 67.0721 65.429 67.0721 65.537C67.0721 65.651 67.0301 65.75 66.9461 65.834C66.8681 65.912 66.7721 65.951 66.6581 65.951ZM69.9032 71.063C69.4652 71.063 69.0932 70.964 68.7872 70.766C68.4872 70.562 68.2592 70.283 68.1032 69.929C67.9532 69.569 67.8782 69.158 67.8782 68.696C67.8782 68.228 67.9532 67.817 68.1032 67.463C68.2592 67.103 68.4872 66.824 68.7872 66.626C69.0932 66.428 69.4652 66.329 69.9032 66.329C70.3352 66.329 70.7042 66.428 71.0102 66.626C71.3162 66.824 71.5442 67.103 71.6942 67.463C71.8502 67.817 71.9282 68.228 71.9282 68.696C71.9282 69.158 71.8502 69.569 71.6942 69.929C71.5442 70.283 71.3162 70.562 71.0102 70.766C70.7042 70.964 70.3352 71.063 69.9032 71.063ZM69.9032 66.869C69.4532 66.869 69.1142 67.04 68.8862 67.382C68.6642 67.724 68.5532 68.162 68.5532 68.696C68.5532 69.224 68.6642 69.662 68.8862 70.01C69.1142 70.352 69.4532 70.523 69.9032 70.523C70.3472 70.523 70.6802 70.352 70.9022 70.01C71.1242 69.668 71.2352 69.23 71.2352 68.696C71.2352 68.162 71.1242 67.724 70.9022 67.382C70.6802 67.04 70.3472 66.869 69.9032 66.869ZM72.9165 71V66.473H73.6365V66.995C73.9305 66.779 74.2035 66.623 74.4555 66.527C74.7075 66.431 74.9775 66.383 75.2655 66.383C75.7215 66.383 76.0635 66.509 76.2915 66.761C76.5195 67.007 76.6335 67.37 76.6335 67.85V71H75.9135V68.075C75.9135 67.415 75.6045 67.085 74.9865 67.085C74.7345 67.085 74.4915 67.145 74.2575 67.265C74.0295 67.379 73.8225 67.514 73.6365 67.67V71H72.9165Z" fill="black"/>
</svg>
