<svg width="324" height="324" viewBox="0 0 324 324" fill="none" xmlns="http://www.w3.org/2000/svg">
<mask id="mask0_139_90" style="mask-type:luminance" maskUnits="userSpaceOnUse" x="0" y="0" width="324" height="324">
<path d="M0 0H324V324H0V0Z" fill="white"/>
</mask>
<g mask="url(#mask0_139_90)">
<mask id="mask1_139_90" style="mask-type:luminance" maskUnits="userSpaceOnUse" x="0" y="0" width="324" height="324">
<path d="M51 0H273C286.526 0 299.5 5.36979 309.063 14.9375C318.625 24.5 324 37.474 324 51V273C324 286.526 318.625 299.495 309.063 309.063C299.5 318.625 286.526 324 273 324H51C37.474 324 24.5 318.625 14.9375 309.063C5.375 299.495 0 286.526 0 273V51C0 37.474 5.375 24.5 14.9375 14.9375C24.5 5.36979 37.474 0 51 0Z" fill="white"/>
</mask>
<g mask="url(#mask1_139_90)">
<path d="M0 0H324V324H0V0Z" fill="#3B729C"/>
</g>
</g>
<mask id="mask2_139_90" style="mask-type:luminance" maskUnits="userSpaceOnUse" x="15" y="15" width="293" height="293">
<path d="M15.7552 15.75H307.755V307.75H15.7552V15.75Z" fill="white"/>
</mask>
<g mask="url(#mask2_139_90)">
<path d="M272.677 308.198H51.2344C31.6406 308.198 15.7552 292.307 15.7552 272.719V51.2708C15.7552 31.6823 31.6406 15.7916 51.2344 15.7916H272.755C292.349 15.7916 308.24 31.6823 308.24 51.2708V272.792C308.161 292.307 292.271 308.198 272.677 308.198ZM51.2344 19.8802C33.8802 19.8802 19.8385 33.9166 19.8385 51.2708V272.792C19.8385 290.151 33.9583 304.187 51.2344 304.187H272.755C290.109 304.187 304.151 290.073 304.151 272.792V51.2708C304.151 33.9166 290.036 19.8802 272.755 19.8802H51.2344Z" fill="#FDFDFD"/>
</g>
<path d="M208.198 71.666V83.1452H130.239V140.583H195.073V151.854H130.239V214.02H211.281V225.499H117.323V71.666H208.198Z" fill="#F8F8F8"/>
</svg>
