<svg width="16" height="10" viewBox="0 0 16 10" fill="none" xmlns="http://www.w3.org/2000/svg">
<g clip-path="url(#clip0_176_1227)">
<path fill-rule="evenodd" clip-rule="evenodd" d="M13.5001 7.75282L13.4333 5.27906L9.36812 6.45345C9.00182 6.53389 8.64047 6.57225 8.28654 6.57349C7.90663 6.57472 7.5329 6.53389 7.16537 6.45345L3.28209 5.26669V7.7751C3.39347 9.07819 7.13195 9.47666 8.27912 9.53111C9.19858 9.57566 12.8306 9.09551 13.3083 8.34682C13.411 8.18347 13.4754 7.98547 13.5001 7.75282ZM15.1472 3.4983V6.52151H15.2425C15.3081 6.52151 15.3613 6.57472 15.3613 6.64031V7.45335C15.3613 7.5177 15.3081 7.57215 15.2425 7.57215H15.1472V7.85677C15.2685 7.87905 15.3613 7.98671 15.3613 8.11417C15.3613 8.25772 15.2425 8.37652 15.099 8.37652H14.63C14.4864 8.37652 14.3676 8.25896 14.3676 8.11417C14.3676 7.98671 14.4604 7.87905 14.5817 7.85677V7.57215H14.4864C14.4221 7.57215 14.3676 7.51894 14.3676 7.45335V6.64031C14.3676 6.57472 14.4208 6.52151 14.4864 6.52151H14.5817V3.67526L9.63418 5.21224C8.73823 5.42509 7.84228 5.43994 6.94633 5.21224L1.48524 3.58245L0.991479 3.43519C0.376442 3.18397 0.529892 2.59369 1.10285 2.45756L7.27922 0.613686C7.91653 0.431773 8.5526 0.403311 9.18992 0.613686L15.2549 2.43529C15.9145 2.59616 16.0444 3.20625 15.2772 3.45746L15.1472 3.4983Z" fill="#50917F"/>
</g>
<defs>
<clipPath id="clip0_176_1227">
<rect width="15.2064" height="9.06716" fill="white" transform="translate(0.59668 0.466415)"/>
</clipPath>
</defs>
</svg>
