<svg width="13" height="14" viewBox="0 0 13 14" fill="none" xmlns="http://www.w3.org/2000/svg">
<path fill-rule="evenodd" clip-rule="evenodd" d="M0.647632 2.80034C1.61979 3.46818 2.58422 4.13983 3.39829 5.00464C2.93164 7.0658 4.79408 8.7126 6.49265 9.6828C7.1576 10.0626 7.45151 10.3289 8.19174 10.2009L11.1069 13.0571C5.62084 14.8995 -0.535934 7.16975 0.647632 2.80034ZM8.94321 9.46655L9.58269 8.81707C9.76708 8.62948 10.0715 8.62711 10.2591 8.8116L12.6167 11.1328C12.8042 11.3173 12.8066 11.6218 12.6222 11.8092L11.9825 12.4588C11.798 12.6463 11.4936 12.6487 11.306 12.4642L8.94837 10.1429C8.76079 9.95856 8.75852 9.65413 8.94321 9.46655ZM1.22224 1.43424L1.68631 0.870768C1.88524 0.62925 2.24576 0.594393 2.48728 0.793321L4.90092 2.78167C5.14244 2.98081 5.17698 3.34113 4.97826 3.58296L4.51399 4.14612C4.31496 4.38795 3.95454 4.4225 3.71292 4.22357L1.29969 2.23522C1.05817 2.03629 1.02311 1.67576 1.22224 1.43424Z" fill="#C2AB80"/>
</svg>
