<svg width="16" height="12" viewBox="0 0 16 12" fill="none" xmlns="http://www.w3.org/2000/svg">
<path d="M8 0C6.61925 0 5.5 0.895433 5.5 2C5.5 2.87081 6.19568 3.61164 7.16667 3.88619V5.33333H4.66667C3.28596 5.33333 2.16667 6.22873 2.16667 7.33333V8.1138C1.19568 8.38833 0.5 9.1292 0.5 10C0.5 11.1046 1.61929 12 3 12C4.38071 12 5.5 11.1046 5.5 10C5.5 9.1292 4.80433 8.38833 3.83333 8.1138V7.33333C3.83333 6.96513 4.20643 6.66667 4.66667 6.66667H11.3333C11.7936 6.66667 12.1667 6.96513 12.1667 7.33333V8.1138C11.1957 8.38833 10.5 9.1292 10.5 10C10.5 11.1046 11.6193 12 13 12C14.3808 12 15.5 11.1046 15.5 10C15.5 9.1292 14.8043 8.38833 13.8333 8.1138V7.33333C13.8333 6.22873 12.7141 5.33333 11.3333 5.33333H8.83333V3.88619C9.80433 3.61164 10.5 2.87081 10.5 2C10.5 0.895433 9.38075 0 8 0Z" fill="#09244B"/>
</svg>
