<svg width="26" height="25" viewBox="0 0 26 25" fill="none" xmlns="http://www.w3.org/2000/svg">
<path d="M3.43766 24.6425C2.73443 24.6425 2.1473 24.407 1.67627 23.936C1.20524 23.4649 0.969727 22.8778 0.969727 22.1746V2.66789C0.969727 1.96465 1.20524 1.37752 1.67627 0.906494C2.1473 0.435465 2.73443 0.199951 3.43766 0.199951H12.0159V1.72761H3.43766C3.2024 1.72761 2.98687 1.82551 2.79108 2.0213C2.59528 2.2171 2.49739 2.43263 2.49739 2.66789V22.1746C2.49739 22.4098 2.59528 22.6254 2.79108 22.8212C2.98687 23.017 3.2024 23.1149 3.43766 23.1149H22.9444C23.1796 23.1149 23.3951 23.017 23.5909 22.8212C23.7867 22.6254 23.8846 22.4098 23.8846 22.1746V13.5964H25.4123V22.1746C25.4123 22.8778 25.1768 23.4649 24.7057 23.936C24.2347 24.407 23.6476 24.6425 22.9444 24.6425H3.43766ZM9.7362 16.9572L8.655 15.876L22.8034 1.72761H16.2463V0.199951H25.4123V9.36591H23.8846V2.80881L9.7362 16.9572Z" fill="white"/>
</svg>
