<svg width="25" height="24" viewBox="0 0 25 24" fill="none" xmlns="http://www.w3.org/2000/svg">
<path d="M5.5 22C4.95 22 4.47917 21.8042 4.0875 21.4125C3.69583 21.0208 3.5 20.55 3.5 20V15.45L6.25 12.325L7.675 13.75L5.675 16H19.325L17.375 13.8L18.8 12.375L21.5 15.45V20C21.5 20.55 21.3042 21.0208 20.9125 21.4125C20.5208 21.8042 20.05 22 19.5 22H5.5ZM5.5 20H19.5V18H5.5V20ZM11.125 14.375L7.6 10.85C7.21667 10.4667 7.02917 9.99583 7.0375 9.4375C7.04583 8.87916 7.24167 8.40833 7.625 8.025L12.525 3.125C12.9083 2.74166 13.3833 2.54166 13.95 2.525C14.5167 2.50833 14.9917 2.69166 15.375 3.075L18.9 6.6C19.2833 6.98333 19.4833 7.45 19.5 8C19.5167 8.55 19.3333 9.01666 18.95 9.4L13.95 14.4C13.5667 14.7833 13.0958 14.9708 12.5375 14.9625C11.9792 14.9542 11.5083 14.7583 11.125 14.375ZM17.5 8.025L13.975 4.5L9.025 9.45L12.55 12.975L17.5 8.025Z" fill="white"/>
</svg>
